<?xml version="1.0" encoding="UTF-8"?>
<svg id="Layer_1" data-name="Layer 1" xmlns="http://www.w3.org/2000/svg" xmlns:xlink="http://www.w3.org/1999/xlink" viewBox="0 0 411 206.42">
  <defs>
    <style>
      .cls-1, .cls-2, .cls-3, .cls-4, .cls-5, .cls-6, .cls-7 {
        fill: #231f20;
      }

      .cls-1, .cls-3, .cls-4, .cls-5, .cls-6, .cls-7, .cls-8 {
        font-family: Times-Roman, 'Times Roman';
      }

      .cls-1, .cls-4, .cls-5, .cls-6, .cls-7 {
        font-size: 8px;
      }

      .cls-2, .cls-9, .cls-10, .cls-11, .cls-12, .cls-13 {
        stroke-width: 0px;
      }

      .cls-3, .cls-8 {
        font-size: 10px;
      }

      .cls-14 {
        font-size: 11px;
      }

      .cls-14, .cls-8, .cls-15 {
        fill: #000;
      }

      .cls-14, .cls-15 {
        font-family: Times-Italic, 'Times Italic';
        font-style: italic;
      }

      .cls-16 {
        letter-spacing: 0em;
      }

      .cls-9 {
        fill: #007b4c;
      }

      .cls-17 {
        letter-spacing: 0em;
      }

      .cls-18, .cls-19, .cls-20, .cls-10, .cls-21, .cls-22, .cls-23, .cls-24, .cls-25 {
        fill: none;
      }

      .cls-18, .cls-21, .cls-22, .cls-24, .cls-25 {
        stroke: #58595b;
      }

      .cls-18, .cls-21, .cls-24 {
        stroke-width: .6px;
      }

      .cls-18, .cls-24 {
        stroke-linecap: round;
      }

      .cls-26 {
        clip-path: url(#clippath-2);
      }

      .cls-4 {
        letter-spacing: 0em;
      }

      .cls-19 {
        stroke-width: .9px;
      }

      .cls-19, .cls-20, .cls-21, .cls-23 {
        stroke-linejoin: round;
      }

      .cls-19, .cls-20, .cls-23 {
        stroke: #231f20;
      }

      .cls-27 {
        clip-path: url(#clippath-6);
      }

      .cls-5 {
        letter-spacing: 0em;
      }

      .cls-20 {
        stroke-width: .8px;
      }

      .cls-6 {
        letter-spacing: 0em;
      }

      .cls-7 {
        letter-spacing: 0em;
      }

      .cls-11 {
        fill: #574109;
      }

      .cls-28 {
        clip-path: url(#clippath-1);
      }

      .cls-22 {
        stroke-dasharray: 0 0 1.79 1.79;
        stroke-width: .55px;
      }

      .cls-29 {
        clip-path: url(#clippath-9);
      }

      .cls-30 {
        clip-path: url(#clippath);
      }

      .cls-12 {
        fill: #9a7f55;
      }

      .cls-24 {
        stroke-miterlimit: 10;
      }

      .cls-25 {
        stroke-dasharray: 0 0 1.83 1.83;
        stroke-width: .56px;
      }

      .cls-31 {
        letter-spacing: .01em;
      }

      .cls-13 {
        fill: #fff;
      }

      .cls-32 {
        letter-spacing: 0em;
      }

      .cls-33 {
        clip-path: url(#clippath-5);
      }

      .cls-34 {
        letter-spacing: .02em;
      }

      .cls-35 {
        letter-spacing: 0em;
      }

      .cls-15 {
        font-size: 10.8px;
      }
    </style>
    <clipPath id="clippath">
      <rect class="cls-10" y=".12" width="411" height="206.3"/>
    </clipPath>
    <clipPath id="clippath-1">
      <rect class="cls-10" y=".12" width="411" height="206.3"/>
    </clipPath>
    <clipPath id="clippath-2">
      <rect class="cls-10" x="237.37" y="20.45" width="18.78" height="20.64"/>
    </clipPath>
    <clipPath id="clippath-3">
      <rect class="cls-10" y=".12" width="411" height="206.3"/>
    </clipPath>
    <clipPath id="clippath-5">
      <rect class="cls-10" y=".12" width="411" height="206.3"/>
    </clipPath>
    <clipPath id="clippath-6">
      <rect class="cls-10" y=".12" width="411" height="206.3"/>
    </clipPath>
    <clipPath id="clippath-9">
      <rect class="cls-10" y=".12" width="411" height="206.3"/>
    </clipPath>
  </defs>
  <rect class="cls-13" y=".12" width="411" height="206.3"/>
  <g class="cls-30">
    <text/>
    <line class="cls-19" x1="74.32" y1="185.32" x2="74.32" y2="62.49"/>
    <polygon class="cls-2" points="76.93 183.54 74.32 193.29 71.7 183.54 76.93 183.54"/>
    <line class="cls-19" x1="37.63" y1="62.51" x2="307.18" y2="62.51"/>
    <polygon class="cls-2" points="305.4 65.13 315.15 62.51 305.4 59.9 305.4 65.13"/>
    <line class="cls-2" x1="8.13" y1="99.99" x2="165.9" y2="9.87"/>
    <line class="cls-19" x1="8.13" y1="99.99" x2="158.98" y2="13.82"/>
    <polygon class="cls-2" points="158.73 16.98 165.91 9.87 156.14 12.43 158.73 16.98"/>
    <line class="cls-24" x1="347.32" y1="73.85" x2="347.32" y2="25.59"/>
    <line class="cls-21" x1="8.32" y1="193.74" x2="8.32" y2="99.8"/>
    <line class="cls-18" x1="138.37" y1="25.59" x2="347.32" y2="25.59"/>
    <line class="cls-20" x1="60.69" y1="121.22" x2="24.32" y2="121.22"/>
    <g class="cls-28">
      <path class="cls-2" d="M60.63,120.01c.66,0,1.2.54,1.2,1.2s-.54,1.2-1.2,1.2-1.2-.54-1.2-1.2.54-1.2,1.2-1.2"/>
      <polygon class="cls-2" points="26.57 118.25 25.31 121.22 26.57 124.18 19.55 121.22 26.57 118.25"/>
      <g class="cls-26">
        <path class="cls-11" d="M251.83,39.21c.26.11-1.7-.29-1.7-.29,0,0-.54-.15-.65-.23-.11-.08-1.67-.91-1.67-.91l.4.65s.7.7,1.16.88c.46.18.71.58.71.58l-.49-.26-.49-.26-1.07-.37-.69-.9.05,1.25.44.61,1.27,1.12-1.14-.53-.36-.53s-.6-.42-.72-.47c-.11-.05-.12-.67-.12-.67l-.43-.73s-1.09.76-1.22.83c-.12.07-.6.24-.6.24,0,0-.06.35-.18.38-.12.03-.44.11-.6.32l-1.15.41,1.02-.65.49-.63.49-.28.65-.51-.35.02-.54-.07-.6.28-.57-.23c-.16.03-1.22.25-1.22.25l.77-.58.77.12.83-.15,1.41-.74.36-.96.17-2.37-.09-1.25-.22-.91-.11-.9s-.18-.24-.13-.4c.05-.15-.17-.48-.17-.48l-.37-.37-.73-.2-1.06.14-.84.46s-1.46.35-1.62.42c-.16.07-1.12.49-1.12.49l.21-.26.37-.29.79-.27.87-.15,1.21-.68-.51.13-.83.11-1.01-.05s-.34-.25-.45-.34c-.11-.08-.87-.44-.87-.44l-.38-.18.24-.07.49.22.5.14-.06-.35-.24-.56.23.13.17.4.25.44.33.41.62.03.71-.08.61-.4.98-.06-.76-.47-.44-.45-.36-.49-.44-.45-1.47-.2-.7-.11s-.7-.08-.69-.23c0-.16.85.12.85.12l.74.12.51-.09-.22-.32-.49-.42-.38-.22-.25-.36.34.14.41.3.56.46.49.26.46.22.09-.23v-.82s-.46-.77-.46-.77l-.36-.64-.52-.57-.36-.49.56.46.48.49.46.81.44.61.08.63.18.32.1-.42.31-.76.26-.41.27-.73-.08-.71c.23.09.28.6.28.6l-.23.57-.18.54-.44,1.58-.22.5.21.4.4.53,1.03.37,1.21.02-.33-.49-.32-.64s-.18-.24-.3-.25c-.12,0-.61-.23-.61-.23l-.45-.41c.16-.11.42.18.42.18l.61.23.37.29.33.37.07-.66-.08-.71-.29-.45-.29-.37-.37-.37c.2-.18.31.06.31.06l.44.45.54.81-.08.7.37.45.03-.58.25-1-.23-.75-.15-.79-.47-.61-.59-.73-.54-.18-.63-.58c.16-.07.54.15.54.15l.49.38.66.15.28.6.3.25.55-.87.07-.5.48-.99c.15.09-.07.5-.07.5l-.15.62-.23.61-.33.37-.03.62.03.94.21.36.3-.41.41-.29.49-.4.3-.45s.02-.31.25-.3l-.19.65-.34.49-.33.26-.45.44-.3.41-.21,1,.05,1.33.19.91.78-1.44.79-.89.33-.33.07-.54-.13-.55.1-.46.15-.24.15-.25.05.55-.17.26.13.4v.51s.12.24.12.24l.68-.35.75-.82.58-.55.68-.98.04-.82c.15.05.25.44.25.44l-.14.5-.71.94-.56,1.06-.53.48.43-.06.44-.29h.74s.59,0,.59,0l.52-.17.41-.33c.06.28-.18.42-.18.42,0,0-.72.23-.83.27-.12.03-.43.09-.55.09l.46.18.7.08c-.05.19-.4.17-.4.17l-.65-.19-.35-.02-.38-.14-.41.29-.51.09.54.18s.27.09.26.21c0,.12.57.34.57.34l.54.07h.51c-.25.21-.52.19-.52.19l-.5-.07-.61-.34-.58-.07-.61-.27-.34-.14-.75.19-.64,1.1.9-.11.34.17h.59s.38-.24.38-.24l.03-.02.4-.1c.14.24-.58.59-.58.59l-.78.04-.75.19-.52,1.03,1.15-.41s.5.22.61.19c.12-.03,1.39-.47,1.39-.47l.61-.51.6-.32.78-.04.37-.29.37-.29-.05.23-.25.3-.25.26-.36.1-.55.13.7.12.94-.07.65.19.3.21.57.34.23.05c-.63.04-.77-.16-.77-.16l-.68-.39h-.51s-.82.08-.82.08l-.55.05-.31-.09-.44.21-.56.24s.15.09.27.09c.12,0,.58.03.58.03l.81.2s.19.01.26.17c.07.16.36.53.36.53-.19-.09-.42-.18-.42-.18l-.26-.29-.62-.15-.66-.11-.55.05-.54-.15-.71.24-.79.19-.73.43-.29.37-.21,1.08-.05.9-.15.54.07.86.17,1.26.34,1.49.58.94.74.7,1.18.61s.85.12,1.35.35"/>
        <path class="cls-12" d="M247.74,28.73l.24-.51s.57-.39.69-.22l-.4.13-.36.47-.24.69-.34.5-.08.52-.35.68s-.19.61-.12.85c.07.24-.03.61-.03.61l-.28.92c-.01-.26.13-.93.13-.93v-.77s.18-.69.18-.69l.27-.66.11-.59.26-.56-.11-.29v-.47s.31-.5.34-.58c.02-.06.15-.29.22-.41.02-.04.04-.07.04-.07l.26-.51v.26s-.16.33-.16.33l-.32.56-.15.36-.1.33.16.35.15-.3Z"/>
        <path class="cls-12" d="M246.46,29.15l-.38-.4.15-.34v-.55s.02-.83.03-.94c-.1,0-.09.23-.09.23l-.12,1.03-.23-.5-.05-.32-.17-.3c-.06.08.03.37.03.37l-.02.19-.21-.07-.11-.12v.1s.1.2.1.2l.28.15.16.11.14.35-.05.52.25.2.11.32.33.23-.33.68v.49s.11.68.11.68l.08-.46-.06-.37.08-.48.35-.63.11-.4.08-.35.11-.27-.14.13-.15.28-.1.11-.06.43-.23-.3Z"/>
        <path class="cls-12" d="M245.95,30.33l.02-.33-.19-.38-.22-.25-.45-.06-.32-.23-.47-.04-.22.11-.49.09-.6.26c.06-.11.49-.33.49-.33l-.25-.13h-.31s-.32.1-.32.1c.06-.07.34-.16.34-.16l.37-.08.29.03.27.05.35-.06.32-.08.46.2.33.04.29.11-.12-.28-.4-.2h-.47s-.25-.02-.25-.02l-.23-.09-.28-.21-.36-.21.35.12.4.22h.23s.66.03.66.03l.3.19.32.25.06.39.27.44-.16.5Z"/>
        <path class="cls-12" d="M242.65,26.97l.06-.43.27-.34.07-.27-.35.41-.17-.07v-.25s-.12-.45-.12-.45v.31s-.04.35-.04.35l.04.35-.21-.07-.23-.05-.59-.21.13.14.4.18.19.11.37.33.2.36s.48.47.41.35c-.11-.18-.33-.41-.33-.41l-.1-.36Z"/>
        <path class="cls-12" d="M251.56,28.58l.31-.3.44-.23.4-.1c-.06.11-.2.17-.2.17l-.26.08-.14.11.25.05.29.07.31.06.2-.03c-.02.06-.32.08-.32.08l-.45-.02-.35-.12-.3.2-.48.19.3-.22Z"/>
        <path class="cls-12" d="M248.74,25.95v.23s-.14.21-.14.21l-.14.11c.09.06.21.03.21.03l.44-.13.31.04.46.12.46.24c-.13-.16-.4-.27-.4-.27l-.13-.14.28-.08.3-.06.3-.14c-.1,0-.23-.01-.23-.01l-.24.08-.32.06-.22.03.17-.21.25-.26.26-.2.2-.44-.08-.02-.11.19-.17.17-.33.35-.14.15-.27.22-.34.06h-.23s-.16-.31-.16-.31Z"/>
        <polygon class="cls-12" points="246.46 33.93 246.58 34.83 246.73 35.83 246.64 36.36 246.69 36.83 246.83 37.11 247.71 37.96 246.86 37.45 246.97 38.13 247.04 38.86 246.72 38.06 246.51 37.29 245.83 38.12 245.3 38.41 246.11 37.54 245.27 37.88 244.75 37.96 245.6 37.48 246.28 37.23 246.42 36.75 246.53 35.82 246.47 35.18 246.46 33.93"/>
        <polygon class="cls-9" points="238.58 28.67 238.88 28.22 239.08 28.07 239.45 27.7 239.92 27.69 241.15 28.1 241.87 27.79 242.91 28.08 243.47 27.64 244.42 27.57 245.07 27.8 244.36 27.88 243.72 28.12 243.53 28.85 242.69 29.16 242 29.71 241.6 30.55 240.42 30.68 239.63 30.95 238.97 30.91 238.48 30.5 237.79 30.27 237.37 30.13 237.47 29.82 237.82 29.68 238.52 29.72 239.12 29.48 239.89 29.79 240.26 29.34 239.88 29.17 239.43 28.83 238.91 29.08 238.58 28.67"/>
        <path class="cls-9" d="M238.69,26.61l-.41-.41.14-.46.44-.21h.51s.1-.44.1-.44l.06-.43.49-.48.32-.8.18-.42.29-.3.58.15.87-.3.23-.73.66-.63,1.19-.33,1.14.53s.34-.61.5-.64c.16-.03,1.03-.26,1.03-.26l1.05.09,1.06.68.39,1.43.6-.24.5.18.09.51-.42.49-.7-.04-.46.52-.35.76-.77.58-.67.2-.52.95-.33.33-1.06.06-.4.25-.39.06-.62-.15-.46-.22-.21-.44.26-.53.72-.31.78-.04.77-.54-.26-.25-.52.28-.67.08-.43.09-.52.28-.21.3-.26.57-.58.18-.21-.07-.7-.12-.65.51-.63.04-.21-.44.26-.53.52-.17.32-.18.83-.23.29-.34.3-.41.18-.42-.33.37-.65.47-.67.16-.44.29-.64.2-.47.68s-.48.29-.83.19"/>
        <path class="cls-9" d="M249.24,25.57l.18-.46.83-.27.1-.42.58-.55.06-.43-.16-.59.25-.38.59-.09.53.22.55.69-.04.66.35.8.64.5.65.27.38.92-.11.66.68.5.16.67s.61.34.6.46c0,.12.09.47.09.47l-.32.22-.63.16-.56-.42-.47.05h-.66s-.62,0-.62,0l.55.69-.03.51-.51.05-.41-.41-.5-.18-1.04-.17-.44.17s-.52.25-.71.2c-.19-.05-.57-.34-.57-.34l-.33-.41-.56-.42.09-.31.4-.17.46.14.7.04.29-.3-.13-.44-.26-.33-.54-.03h-.7s-.27.03-.43-.02c-.15-.05-.35-.1-.35-.1l-.21-.36.18-.38.6-.32.43-.07,1.22.55.6.46.44-.21.41-.45-.48.17-.32.14s-.19-.05-.26-.21c-.07-.16-.69-.23-.69-.23l-.23-.13-.11-.2-.34-.25.14-.34Z"/>
      </g>
    </g>
    <text class="cls-8" transform="translate(126.51 56.3) rotate(-30)"><tspan x="0" y="0">free surface</tspan></text>
    <text class="cls-15" transform="translate(72.13 200.64)"><tspan x="0" y="0">z</tspan></text>
    <text class="cls-8" transform="translate(114.32 137.03) rotate(-90)"><tspan x="0" y="0">fault at x = 0</tspan></text>
    <text class="cls-14" transform="translate(318.23 63.86)"><tspan x="0" y="0">y</tspan></text>
    <g class="cls-33">
      <text class="cls-14" transform="translate(169.13 9.21)"><tspan x="0" y="0">x</tspan></text>
    </g>
    <g class="cls-27">
      <line class="cls-20" x1="374.28" y1="54.93" x2="335.81" y2="54.93"/>
      <polygon class="cls-2" points="372.03 51.97 373.29 54.93 372.03 57.89 379.05 54.93 372.03 51.97"/>
      <path class="cls-2" d="M335.87,53.73c-.67,0-1.2.54-1.2,1.2s.54,1.2,1.2,1.2,1.2-.54,1.2-1.2-.54-1.2-1.2-1.2"/>
      <rect class="cls-13" x="287.96" y="70.15" width="11.66" height="11.66"/>
      <line class="cls-23" x1="330.5" y1="180.13" x2="405.33" y2="180.13"/>
      <line class="cls-23" x1="297.59" y1="85.85" x2="405.33" y2="85.85"/>
      <line class="cls-23" x1="297.59" y1="180.55" x2="297.59" y2="86.27"/>
      <line class="cls-23" x1="405.33" y1="180.13" x2="405.33" y2="85.85"/>
      <line class="cls-23" x1="297.59" y1="180.13" x2="405.33" y2="180.13"/>
    </g>
    <g class="cls-29">
      <line class="cls-25" x1="119.45" y1="151.19" x2="297.59" y2="180.55"/>
      <line class="cls-22" x1="183.55" y1="25.59" x2="405.33" y2="85.85"/>
    </g>
  </g>
  <line class="cls-19" x1="119.45" y1="62.49" x2="183.55" y2="25.59"/>
  <line class="cls-19" x1="118.98" y1="151.82" x2="183.08" y2="114.92"/>
  <line class="cls-19" x1="119.45" y1="62.49" x2="119.45" y2="151.19"/>
  <line class="cls-19" x1="183.55" y1="25.59" x2="183.55" y2="114.92"/>
  <text class="cls-1" transform="translate(185.18 22.15)"><tspan x="0" y="0">L </tspan></text>
  <text class="cls-4" transform="translate(190.65 22.81) scale(.58)"><tspan x="0" y="0">x</tspan></text>
  <text class="cls-1" transform="translate(192.81 22.15)"><tspan x="0" y="0">,0</tspan></text>
  <text class="cls-1" transform="translate(103.89 71.08)"><tspan x="0" y="0">0,0</tspan></text>
  <line class="cls-22" x1="119.45" y1="62.49" x2="297.59" y2="85.85"/>
  <text class="cls-1" transform="translate(103.83 150.55)"><tspan x="0" y="0">0,L </tspan></text>
  <text class="cls-1" transform="translate(115.06 151.21) scale(.58)"><tspan x="0" y="0">z</tspan></text>
  <text class="cls-1" transform="translate(185.25 113.03)"><tspan x="0" y="0">L </tspan></text>
  <text class="cls-4" transform="translate(190.72 113.69) scale(.58)"><tspan x="0" y="0">x</tspan></text>
  <text class="cls-1" transform="translate(192.88 113.03)"><tspan x="0" y="0">,L </tspan></text>
  <text class="cls-1" transform="translate(200.01 113.69) scale(.58)"><tspan x="0" y="0">z</tspan></text>
  <text class="cls-1" transform="translate(299.59 177.84)"><tspan x="0" y="0">0,L </tspan></text>
  <text class="cls-1" transform="translate(310.82 178.5) scale(.58)"><tspan x="0" y="0">z</tspan></text>
  <text class="cls-1" transform="translate(299.53 93.18)"><tspan x="0" y="0">0,0</tspan></text>
  <text class="cls-1" transform="translate(391.08 93.18)"><tspan x="0" y="0">L </tspan></text>
  <text class="cls-4" transform="translate(396.56 93.84) scale(.58)"><tspan x="0" y="0">x</tspan></text>
  <text class="cls-1" transform="translate(398.72 93.18)"><tspan x="0" y="0">,0</tspan></text>
  <text class="cls-1" transform="translate(388.61 178.22) scale(.96 1)"><tspan x="0" y="0">L </tspan></text>
  <text class="cls-7" transform="translate(393.87 178.89) scale(.56 .58)"><tspan x="0" y="0">x</tspan></text>
  <text class="cls-5" transform="translate(395.94 178.22) scale(.96 1)"><tspan x="0" y="0">,L </tspan></text>
  <text class="cls-6" transform="translate(402.79 178.89) scale(.56 .58)"><tspan x="0" y="0">z</tspan></text>
  <path class="cls-25" d="M183.08,114.92c13.92,4.51,27.92,7.51,41.92,11.51,25,8,49,13,73.41,21.62"/>
  <text class="cls-3"><tspan x="310.26" y="125.03">displa</tspan><tspan class="cls-16" x="335.07" y="125.03">c</tspan><tspan x="339.49" y="125.03">eme</tspan><tspan class="cls-32" x="357.85" y="125.03">n</tspan><tspan x="363.36" y="125.03">t in </tspan><tspan x="310.26" y="137.03">the </tspan><tspan class="cls-32" x="326.25" y="137.03">y</tspan><tspan class="cls-34" x="330.92" y="137.03">-</tspan><tspan class="cls-17" x="334.17" y="137.03">di</tspan><tspan class="cls-35" x="342.15" y="137.03">r</tspan><tspan x="345.32" y="137.03">e</tspan><tspan class="cls-31" x="350.33" y="137.03">c</tspan><tspan class="cls-17" x="354.94" y="137.03">tion</tspan></text>
  <text class="cls-8" transform="translate(292.26 159.3) rotate(-90)"><tspan x="0" y="0">fault at x = 0</tspan></text>
  <text/>
</svg>