<?xml version="1.0" encoding="UTF-8"?>
<svg id="Layer_1" data-name="Layer 1" xmlns="http://www.w3.org/2000/svg" xmlns:xlink="http://www.w3.org/1999/xlink" viewBox="0 0 580.94 217.32">
  <defs>
    <style>
      .cls-1, .cls-2, .cls-3, .cls-4, .cls-5 {
        font-family: Times-Roman, 'Times Roman';
      }

      .cls-1, .cls-6, .cls-4 {
        fill: #231f20;
      }

      .cls-1, .cls-4 {
        font-size: 8px;
      }

      .cls-2 {
        font-size: 7.2px;
      }

      .cls-2, .cls-7, .cls-3, .cls-5, .cls-8 {
        fill: #000;
      }

      .cls-6, .cls-9, .cls-10, .cls-11 {
        stroke-width: 0px;
      }

      .cls-7, .cls-3 {
        font-size: 11px;
      }

      .cls-7, .cls-8 {
        font-family: Times-Italic, 'Times Italic';
        font-style: italic;
      }

      .cls-12 {
        stroke-width: .5px;
      }

      .cls-12, .cls-13 {
        stroke-linejoin: round;
      }

      .cls-12, .cls-13, .cls-14, .cls-10, .cls-15, .cls-16 {
        fill: none;
      }

      .cls-12, .cls-13, .cls-14, .cls-15, .cls-16 {
        stroke: #231f20;
      }

      .cls-9 {
        fill: #c2c2d1;
      }

      .cls-4 {
        letter-spacing: 0em;
      }

      .cls-13 {
        stroke-width: .9px;
      }

      .cls-14 {
        stroke-width: .67px;
      }

      .cls-17 {
        clip-path: url(#clippath-4);
      }

      .cls-18 {
        clip-path: url(#clippath-12);
      }

      .cls-19 {
        clip-path: url(#clippath);
      }

      .cls-15 {
        stroke-dasharray: 0 0 1.79 1.79;
        stroke-miterlimit: 10;
      }

      .cls-11 {
        fill: #e6e7e8;
      }

      .cls-16 {
        stroke-width: .57px;
      }

      .cls-5 {
        font-size: 6.41px;
      }

      .cls-8 {
        font-size: 10.8px;
      }
    </style>
    <clipPath id="clippath">
      <polygon class="cls-10" points="135.82 206.3 493.18 217.32 493.18 11.01 135.82 0 135.82 206.3"/>
    </clipPath>
    <clipPath id="clippath-4">
      <polygon class="cls-10" points="135.82 0 493.18 11.01 493.18 217.32 135.82 206.3 135.82 0"/>
    </clipPath>
    <clipPath id="clippath-12">
      <polygon class="cls-10" points="135.82 0 493.18 11.01 493.18 217.32 135.82 206.3 135.82 0"/>
    </clipPath>
  </defs>
  <g class="cls-19">
    <rect class="cls-9" x="210.1" y="62.37" width="209.55" height="33.27"/>
    <rect class="cls-14" x="210.1" y="62.37" width="209.55" height="33.27"/>
    <path class="cls-12" d="M320.69,122.41h.61M367.89,122.41h-.62"/>
    <line class="cls-13" x1="210.14" y1="185.2" x2="210.14" y2="62.37"/>
    <polygon class="cls-6" points="212.76 183.42 210.14 193.17 207.53 183.42 212.76 183.42"/>
    <line class="cls-13" x1="173.45" y1="62.39" x2="443" y2="62.39"/>
    <polygon class="cls-6" points="441.22 65.01 450.98 62.39 441.22 59.78 441.22 65.01"/>
    <text class="cls-2" transform="translate(289.61 120.61)"><tspan x="0" y="0">linear elastic bulk</tspan></text>
    <text class="cls-3" transform="translate(204.79 144.52) rotate(-90)"><tspan x="0" y="0">fault at x = 0</tspan></text>
    <rect class="cls-11" x="210.15" y="95.64" width="209.5" height="59.73"/>
    <text class="cls-3" transform="translate(290.13 58.42)"><tspan x="0" y="0">free surface</tspan></text>
    <text class="cls-8" transform="translate(207.95 200.52)"><tspan x="0" y="0">z</tspan></text>
    <text class="cls-7" transform="translate(454.06 63.74)"><tspan x="0" y="0">x</tspan></text>
    <g class="cls-17">
      <text/>
    </g>
    <g class="cls-18">
      <polyline class="cls-16" points="210.15 155.37 210.15 95.64 419.65 95.64 419.65 155.37"/>
      <line class="cls-16" x1="210.15" y1="155.37" x2="212.15" y2="155.37"/>
      <line class="cls-16" x1="210.15" y1="155.37" x2="419.65" y2="155.37"/>
    </g>
  </g>
  <text class="cls-3" transform="translate(290.31 165.77)"><tspan x="0" y="0">free surface</tspan></text>
  <text class="cls-3" transform="translate(431.54 145.32) rotate(-90)"><tspan x="0" y="0">slow tectonic </tspan><tspan x="0" y="13.2">loading at x = L </tspan></text>
  <text class="cls-3" transform="translate(446.4 72.91) rotate(-90) scale(.58)"><tspan x="0" y="0">x</tspan></text>
  <text class="cls-1" transform="translate(413.18 58.42)"><tspan x="0" y="0">L </tspan></text>
  <text class="cls-4" transform="translate(418.65 59.08) scale(.58)"><tspan x="0" y="0">x</tspan></text>
  <text class="cls-1" transform="translate(420.81 58.42)"><tspan x="0" y="0">,L </tspan></text>
  <text class="cls-1" transform="translate(427.94 59.08) scale(.58)"><tspan x="0" y="0">z</tspan></text>
  <text class="cls-1" transform="translate(212.39 59.6)"><tspan x="0" y="0">0,0</tspan></text>
  <text class="cls-1" transform="translate(413.24 165.62)"><tspan x="0" y="0">L </tspan></text>
  <text class="cls-4" transform="translate(418.71 166.29) scale(.58)"><tspan x="0" y="0">x</tspan></text>
  <text class="cls-1" transform="translate(420.87 165.62)"><tspan x="0" y="0">,L </tspan></text>
  <text class="cls-1" transform="translate(428 166.29) scale(.58)"><tspan x="0" y="0">z</tspan></text>
  <text class="cls-1" transform="translate(212.39 165.62)"><tspan x="0" y="0">0,L </tspan></text>
  <text class="cls-1" transform="translate(223.62 166.29) scale(.58)"><tspan x="0" y="0">z</tspan></text>
  <rect class="cls-15" x=".5" y="63.74" width="209.5" height="91.52"/>
  <text class="cls-3" transform="translate(28.1 95.55)"><tspan x="0" y="0">anti-symmetric motion</tspan></text>
  <line class="cls-10" x1="409.06" y1="83.26" x2="410.47" y2="92.71"/>
  <line class="cls-10" x1="409.06" y1="83.26" x2="409.76" y2="95.64"/>
  <g>
    <line class="cls-12" x1="410.11" y1="93.2" x2="410.11" y2="62.15"/>
    <polygon class="cls-6" points="410.11 95.64 411.51 92.21 410.11 93.02 408.71 92.21 410.11 95.64"/>
  </g>
  <polyline class="cls-10" points="410.11 62.15 411.41 65.22 410.11 64.67 408.82 65.22 410.11 62.15"/>
  <text class="cls-7" transform="translate(404.93 78.98)"><tspan x="0" y="0">W</tspan></text>
  <text class="cls-5" transform="translate(414.1 80.64)"><tspan x="0" y="0">f</tspan></text>
</svg>